<svg xmlns="http://www.w3.org/2000/svg" width="120" height="30" viewBox="0 0 120 30" fill="none" role="img">
	<title>Topstep Logo</title>
	<g clipPath="url(#clip0_222_658)">
		<path
			d="M109.279 18.9169V29.3891H104.145V0.404419H111.785C117.404 0.404419 119.83 2.58737 119.83 7.72133V11.2766C119.83 16.0467 117.485 18.9169 111.866 18.9169H109.279ZM109.279 5.10188V14.2235H111.583C113.645 14.2235 114.615 13.132 114.615 11.0299V8.13375C114.615 5.91036 113.685 5.10188 111.583 5.10188H109.279Z"
			fill="white"
		/>
		<path
			d="M41.707 18.9169V29.3891H36.5731V0.404419H44.2134C49.8325 0.404419 52.258 2.58737 52.258 7.72133V11.2766C52.258 16.0467 49.9131 18.9169 44.2943 18.9169H41.707ZM41.707 5.10188V14.2235H44.0113C46.0729 14.2235 47.0432 13.132 47.0432 11.0299V8.13375C47.0432 5.91036 46.1134 5.10188 44.0113 5.10188H41.707Z"
			fill="white"
		/>
		<path
			d="M102.37 29.3891H88.5851V0.404419H102.127V5.13415H93.7593V12.4551H101.117V17.2253H93.7593V24.4977H102.37V29.3891Z"
			fill="white"
		/>
		<path
			d="M61.4552 29.8336C55.4316 29.8336 53.37 27.206 53.37 22.2742V18.3934H58.7872V22.002C58.7872 23.8615 59.4339 24.953 61.5359 24.953C63.4362 24.953 64.0829 23.7807 64.0829 22.1637V20.8593C64.0829 20.0508 63.8808 19.404 63.4362 18.7976C62.5869 17.7061 61.0913 16.8976 59.4743 16.0891C58.5448 15.604 57.6148 15.0785 56.7659 14.4317C54.987 13.1786 53.6936 11.3999 53.6936 8.40841V7.19567C53.6936 2.70847 56.1595 0 61.3746 0C66.5892 0 68.9336 2.54677 68.9336 6.79141V9.94456H63.7997V7.45161C63.7997 5.55162 63.1126 4.70269 61.3338 4.70269C59.5957 4.70269 58.9082 5.83461 58.9082 7.57289V8.04457C58.9082 8.81267 59.1103 9.41902 59.5554 9.90413C60.4043 10.9147 61.8595 11.6828 63.4362 12.4913C64.3657 12.9764 65.2549 13.5424 66.1849 14.1487C67.9638 15.4019 69.2975 17.221 69.2975 20.2529V22.4763C69.2975 27.0847 66.6698 29.8336 61.4552 29.8336Z"
			fill="white"
		/>
		<path
			d="M26.0392 29.8335C20.8244 29.8335 17.6713 27.125 17.6713 21.0209V8.85295C17.6713 2.91046 20.9457 0.0402832 26.0392 0.0402832C31.1328 0.0402832 34.4072 2.91046 34.4072 8.85295V21.0209C34.4072 27.0846 31.1328 29.8335 26.0392 29.8335ZM26.0392 24.6691C28.1414 24.6691 28.9903 23.4827 28.9903 20.4912V9.22082C28.9903 6.18895 28.1414 5.00252 26.0392 5.00252C23.8563 5.00252 23.0882 6.22938 23.0882 9.22082V20.4912C23.0882 23.4827 23.8563 24.6691 26.0392 24.6691Z"
			fill="white"
		/>
		<path d="M11.1462 5.20642V29.421H5.93134V5.20642H0V0.436279H17.1179V5.20642H11.1462Z" fill="white" />
		<path d="M81.0954 5.20643V29.421H75.8808V5.20643H69.9492V0.436279H87.0674V5.20643H81.0954Z" fill="white" />
	</g>
	<defs>
		<clipPath id="clip0_222_658">
			<rect width="120" height="30" fill="white" />
		</clipPath>
	</defs>
</svg>
